<?xml version="1.0" standalone="no"?>
<!DOCTYPE svg PUBLIC "-//W3C//DTD SVG 1.1//EN" "http://www.w3.org/Graphics/SVG/1.1/DTD/svg11.dtd" >
<svg xmlns="http://www.w3.org/2000/svg">
<metadata>Generated by IcoMoon</metadata>
<defs>
<font id="icomoon" horiz-adv-x="1024">
<font-face units-per-em="1024" ascent="960" descent="-64" />
<missing-glyph horiz-adv-x="1024" />
<glyph unicode="&#x20;" horiz-adv-x="512" d="" />
<glyph unicode="&#xe900;" glyph-name="analyse" horiz-adv-x="956" d="M289.906 960h359.765c3.641-11.833 10.923-35.499 14.564-47.332-12.516-5.916-37.092-17.749-49.38-23.893-0.91-68.039-0.91-136.078 0-204.117 101.262-192.057 217.543-376.604 316.53-569.799 41.415-81.92-24.121-169.756-108.999-178.859h-686.308c-39.822 9.102-84.651 18.432-110.364 53.703-37.092 48.014-21.39 114.688 7.054 162.475 101.49 178.176 208.213 353.394 307.655 532.48 1.365 68.949 2.503 138.126-0.91 207.076-41.87 0.228-68.039 26.624-49.607 68.267zM409.828 891.506c-1.365-75.321 1.365-150.414-0.91-225.508-65.536-114.688-134.94-227.1-201.614-341.333 176.811-0.455 353.621-0.455 530.204 0-62.578 114.233-128.796 226.645-190.692 341.333-2.276 75.093 0.455 150.414-0.91 225.508-45.284 0.683-90.795 0.683-136.078 0z" />
<glyph unicode="&#xe901;" glyph-name="arrow-down" d="M0 866.56c36.206 30.72 78.811 106.789 133.12 61.44 128.366-123.429 251.794-252.16 378.88-376.869 117.394 116.846 234.606 233.874 351.086 351.451 15.909 14.811 31.451 31.086 51.931 39.863 52.663 3.109 81.189-50.286 108.983-86.126v-2.194c-18.286-41.874-51.749-73.326-84.114-104.411-128.549-126.171-253.989-255.634-382.903-381.44-22.674-29.623-67.657-29.257-90.331 0.366-156.526 154.697-312.137 310.491-466.651 467.2v30.72zM33.829 407.040c-83.017 57.234 55.589 196.389 113.554 115.017 121.417-121.6 242.834-243.2 364.617-364.434 122.149 121.234 243.383 243.383 365.166 364.8 57.051 79.909 194.743-56.686 114.103-114.286-146.651-145.92-292.023-293.303-439.589-438.309-19.931-24.686-60.16-24.137-79.909 0.366-147.017 144.64-291.657 291.474-437.943 436.846z" />
<glyph unicode="&#xe902;" glyph-name="arrow-left" d="M836.887 853.566c38.788 1.552 77.576 3.103 116.364 4.965-1.862-30.41-5.275-91.229-7.137-121.328-108.296-98.366-213.488-199.215-317.44-302.235 99.297-111.088 202.628-217.522 314.337-315.888 2.172-27.617 6.516-82.541 8.688-109.847-31.030 0-92.781 0-123.811 0-115.743 117.915-230.555 237.072-350.642 351.263 0 44.063-0.31 87.816-0.621 131.879 102.71 86.885 203.559 176.562 288.892 281.135 23.583 26.996 47.476 53.372 71.37 80.058zM102.4 474.376c130.948 124.432 258.482 252.276 383.224 382.914 32.582-0.621 97.435-1.552 129.707-2.172-4.655-52.752-13.964-106.124-57.096-141.498-90.298-83.161-164.461-186.492-272.756-248.553 59.578-154.531 221.867-237.692 316.199-369.571 2.482-21.101 6.827-63.612 9.309-84.713-49.648 0.31-98.987 0.621-148.325 0.931-101.779 133.12-227.142 247.932-352.815 358.090-1.862 26.065-5.585 78.507-7.447 104.572z" />
<glyph unicode="&#xe903;" glyph-name="arrow-right" d="M102.4 857.91c31.341-0.621 94.022-2.172 125.362-2.793 78.507-76.955 154.221-157.013 232.107-234.899 49.338-50.269 99.607-100.228 149.256-150.497-0.621-19.859-2.172-59.268-2.793-78.817-111.399-131.258-255.069-236.141-354.987-376.087-49.338-6.206-98.676-8.688-148.635-7.137 1.862 28.548 5.585 85.954 7.447 114.812 108.606 58.958 173.149 176.252 276.48 245.45 1.862 26.065 5.585 78.507 7.447 104.882-96.815 96.194-195.801 190.216-289.513 289.513-0.31 23.893-1.552 71.68-2.172 95.573zM471.971 860.082c29.789-2.482 89.367-7.758 118.846-10.24 108.606-125.983 226.832-247.001 354.676-353.745 6.206-44.994 6.827-90.608 1.862-135.913-129.396-124.121-249.173-258.482-384.776-375.777-20.79-2.172-62.371-6.206-83.161-8.378-6.206 49.338-5.896 98.676 1.241 147.704 107.365 70.749 188.044 177.183 280.204 266.55 0.31 19.549 1.552 59.268 1.862 78.817-78.507 48.718-135.913 121.949-202.007 185.251-26.686 26.376-54.924 51.2-81.61 77.886-1.552 31.961-5.275 95.884-7.137 127.845z" />
<glyph unicode="&#xe904;" glyph-name="arrow-up" horiz-adv-x="1078" d="M472.657 960h124.856l-51.2-10.599c150.546-130.605 283.666-279.354 428.284-416.067 25.869-23.893 47.607-52.278 64.494-83.178l5.749-1.258c-27.846-48.146-61.081-104.735-127.012-91.621-101.681 120.365-225.819 219.711-326.782 340.794-31.798 2.156-63.596 3.952-95.573 5.389-106.352-120.006-230.669-222.945-333.608-346.184-23.534 2.874-47.427 2.335-70.422 8.444-19.941 23.714-34.493 51.2-50.122 77.788-10.24 0.359-30.9 1.078-41.319 1.437v23.714c11.318 0 33.774-0.359 45.092-0.539 111.382 121.622 231.568 234.262 346.364 352.472 44.733 46.888 94.495 88.387 144.797 129.168l-63.596 10.24zM477.148 519.86c24.612 32.337 69.345 15.45 103.837 20.66 149.827-154.319 305.224-303.248 454.333-458.285-0.359-40.062-19.941-78.686-54.793-99.166-24.612-2.874-49.224-1.796-74.015-2.156-106.173 117.491-231.029 218.453-329.656 342.232-25.331 0.18-50.481 0.18-75.632-0.18-98.987-123.778-223.843-225.1-330.375-342.411-37.367-2.156-74.375 1.617-107.071 21.199-6.108 26.947-14.372 53.356-21.917 79.944 143.001 148.031 290.852 291.391 435.29 438.164z" />
<glyph unicode="&#xe905;" glyph-name="clock" horiz-adv-x="904" d="M102.099 914.221c79.812 57.826 179.501 21.082 249.976-31.925-126.494-40.056-235.821-116.254-322.861-215.944-20.48 87.944-13.854 197.572 72.885 247.868zM546.334 882.598c71.68 53.609 173.779 90.052 253.289 29.214 84.329-51.501 89.148-158.72 68.969-245.459-86.739 99.991-196.066 175.586-322.259 216.245zM339.125 806.701c229.195 67.464 489.111-93.967 531.878-328.282 50.598-213.835-90.654-446.042-301.779-502.965-230.099-74.089-497.544 86.438-541.816 323.464-52.706 217.449 94.871 455.379 311.718 507.784zM312.019 707.915c-164.141-67.162-253.289-270.155-188.838-435.802 60.235-182.814 289.129-282.504 463.511-199.68 170.466 67.464 256.904 282.504 182.212 449.656-66.259 174.984-287.322 264.132-456.885 185.826zM388.216 628.706c16.264 0 48.791 0 65.054 0 0.301-79.511 0.301-159.322 0.301-238.833 60.235 0 120.471-0.301 180.706-0.301 0-15.36 0-46.381 0-62.042-82.221 0-164.141 0-246.061 0-0.301 100.292-0.301 200.885 0 301.176z" />
<glyph unicode="&#xe906;" glyph-name="close" d="M151.552 923.136c122.197-112.64 240.299-228.693 355.669-348.16 114.688 111.957 228.011 225.28 341.333 339.285 29.355-26.624 88.747-78.507 118.101-104.448-109.909-120.832-223.915-238.251-342.016-351.573 118.784-116.053 240.299-229.376 340.651-361.813-29.355-23.211-88.747-70.315-118.784-93.525-111.957 114.005-225.28 226.645-338.603 338.603-111.957-111.957-223.915-224.597-335.189-337.92-30.72 23.211-91.477 70.997-122.197 94.891 105.813 127.659 223.232 245.077 342.699 359.083-108.544 115.371-237.568 214.357-326.315 346.112 21.163 30.037 63.488 89.429 84.651 119.467z" />
<glyph unicode="&#xe907;" glyph-name="communication" horiz-adv-x="1161" d="M48.811 676.693c146.091 333.483 687.787 348.843 868.693 39.595 81.237-136.192 34.133-320.853-89.088-415.061-110.933-98.304-263.168-120.491-406.528-117.76-98.304-82.261-222.549-116.736-349.525-117.077 60.075 51.541 122.88 105.472 136.533 187.733-130.731 92.843-230.4 262.144-160.085 422.571zM1045.504 594.773c46.763-76.8 111.957-154.283 98.304-250.539-4.779-105.472-86.357-178.517-159.061-243.371 25.6-60.757 58.368-119.125 106.496-164.864h-15.36c-98.987 12.629-191.488 49.835-275.797 102.4-104.789 3.755-207.531 24.917-305.835 62.123 152.917 23.893 315.733 61.44 422.912 182.613 86.016 81.237 106.155 201.045 128.341 311.637z" />
<glyph unicode="&#xe908;" glyph-name="deliver" horiz-adv-x="1280" d="M47.787 960h771.982c21.049-16.213 41.813-32.711 62.578-49.209-0.569-59.449-0.569-118.898-0.569-178.347 76.231 0.284 152.462-0.284 228.693 0 56.036-105.529 116.622-208.782 169.529-316.018v-224.711c-33.849 0.284-67.698 0.569-101.547 0.853 2.844-46.364 10.809-93.298 4.836-139.947-10.524-59.164-69.689-87.893-115.769-116.622h-39.822c-47.502 13.369-101.547 26.453-128.853 71.68-38.969 54.613-14.791 123.733-13.369 184.889-138.524-0.853-277.333-0.853-416.142-0.284 17.636-102.684-4.551-218.169-115.484-256.284h-59.164c-39.538 18.204-85.618 32.711-110.649 71.111-38.684 51.769-16.213 118.044-13.369 176.64-61.44 7.111-122.88 21.618-170.667 63.716v666.169c39.538-8.818 55.467 6.542 47.787 46.364zM883.2 644.551c0.284-65.422 0.284-130.844 0.284-196.551 84.196 0 168.676 0 252.871 0-36.978 66.56-74.24 133.12-111.218 199.68-47.502-0.853-94.72-1.991-141.938-3.129z" />
<glyph unicode="&#xe909;" glyph-name="developing" horiz-adv-x="1101" d="M448.768 960h194.304c8.704-53.76 17.92-107.52 26.624-161.28 69.376-3.84 122.624 41.472 175.872 78.336 45.312-44.288 90.112-89.088 135.424-133.632-35.072-52.224-90.624-104.192-75.008-173.824 56.832-9.728 113.664-18.944 170.752-29.184-0.256-62.72-0.256-125.44 0-188.16-53.504-8.448-106.752-16.64-160.256-25.088-5.376-13.056-16.384-39.168-21.76-52.224 29.184-40.448 58.368-80.896 87.808-121.088-45.824-44.544-91.136-89.856-136.704-134.656-53.248 36.864-106.496 81.92-175.616 78.848-8.704-54.272-17.664-108.288-28.928-162.048h-194.048c-8.192 49.152-16.896 98.304-25.344 147.456-13.312 5.12-39.936 15.36-53.248 20.48-40.96-28.928-82.176-57.344-122.88-86.272-45.568 45.568-91.904 90.368-137.984 135.424 29.44 41.216 58.624 82.432 88.064 123.648-5.888 12.8-17.408 38.4-23.296 51.2-49.664 7.424-98.816 16.128-148.48 23.808 0.256 64.256 0 128.256 0 192.512 49.664 7.936 99.328 16.64 148.992 24.576 5.632 13.056 16.64 38.912 22.272 51.968-29.184 40.704-58.368 81.664-87.808 122.368 46.080 45.056 92.416 89.856 138.24 135.424 40.704-28.928 81.92-57.344 122.624-86.272 13.312 5.12 39.424 15.616 52.48 20.736 8.96 48.896 17.664 98.048 27.904 146.944zM493.312 565.504c-88.576-32-105.984-165.12-28.16-218.368 70.144-58.368 190.72-16.128 207.104 73.984 26.368 98.304-88.832 188.928-178.944 144.384z" />
<glyph unicode="&#xe90a;" glyph-name="graphic" d="M796.094 960v0c80.082-68.792 142.572-157.013 227.906-218.978v-7.352c-26.782-15.229-51.2-33.346-73.255-54.613-71.68 74.831-148.086 145.461-217.666 222.392 21.268 19.43 42.273 38.859 63.015 58.552zM324.529 800.624c116.578 9.19 235.257 35.709 351.048 25.731 75.356-66.691 142.31-142.31 215.040-211.889-10.503-115.266-19.43-230.794-32.821-346.059-262.302-18.642-482.593-177.231-697.37-314.027-11.29 13.128-34.133 39.647-45.424 52.775 87.959 85.596 174.080 173.030 260.726 259.938 91.11-24.944 185.633 82.708 111.59 159.376-70.367 77.194-185.37-6.039-165.678-98.987-73.781-97.149-173.292-172.505-252.849-265.452-21.268 14.704-41.748 30.195-61.703 46.736 146.511 206.901 295.91 432.443 317.44 691.856z" />
<glyph unicode="&#xe90b;" glyph-name="facebook" d="M672 768c-88.366 0-160-71.634-160-160v-96h-128v-128h128v-448h128v448h144l32 128h-176v96c0 17.672 14.326 32 32 32h160v128h-160z" />
<glyph unicode="&#xe90c;" glyph-name="hand" horiz-adv-x="990" d="M741.035 960h2.389c128-101.376 29.013-259.413-24.235-372.736 75.776-2.389 152.235-1.707 227.669-13.995 22.528-226.304-40.96-467.627-197.632-637.269h-156.672c-87.381 23.893-169.984 63.488-258.731 81.579-77.824 8.192-155.307-12.971-233.472-8.533-75.093 18.432-62.464 109.568-68.949 167.936 0.683 120.149-15.019 245.76 21.163 361.813 49.835 84.651 158.72 32.085 232.448 16.384 197.973 69.973 381.611 201.045 456.021 404.821zM178.176 560.981c-12.971-173.397-6.144-347.477-7.509-521.557 17.749-1.365 52.907-3.755 70.656-5.12-5.803 162.133 5.461 324.949-7.509 486.741-13.653 10.24-41.643 30.037-55.637 39.936z" />
<glyph unicode="&#xe90d;" glyph-name="twitter" d="M1024 765.582c-37.676-16.708-78.164-28.002-120.66-33.080 43.372 26 76.686 67.17 92.372 116.23-40.596-24.078-85.556-41.56-133.41-50.98-38.32 40.83-92.922 66.34-153.346 66.34-116.022 0-210.088-94.058-210.088-210.078 0-16.466 1.858-32.5 5.44-47.878-174.6 8.764-329.402 92.4-433.018 219.506-18.084-31.028-28.446-67.116-28.446-105.618 0-72.888 37.088-137.192 93.46-174.866-34.438 1.092-66.832 10.542-95.154 26.278-0.020-0.876-0.020-1.756-0.020-2.642 0-101.788 72.418-186.696 168.522-206-17.626-4.8-36.188-7.372-55.348-7.372-13.538 0-26.698 1.32-39.528 3.772 26.736-83.46 104.32-144.206 196.252-145.896-71.9-56.35-162.486-89.934-260.916-89.934-16.958 0-33.68 0.994-50.116 2.94 92.972-59.61 203.402-94.394 322.042-94.394 386.422 0 597.736 320.124 597.736 597.744 0 9.108-0.206 18.168-0.61 27.18 41.056 29.62 76.672 66.62 104.836 108.748z" />
<glyph unicode="&#xe90e;" glyph-name="dribbble" d="M512.002-64c-282.32 0-512.002 229.682-512.002 512s229.682 512 512.002 512c282.322 0 511.998-229.682 511.998-512s-229.676-512-511.998-512zM943.798 377.914c-14.962 4.72-135.364 40.632-272.41 18.698 57.204-157.186 80.478-285.208 84.958-311.808 98.114 66.336 167.958 171.426 187.452 293.11zM682.832 44.762c-6.506 38.37-31.898 172.090-93.298 331.64-0.96-0.328-1.922-0.64-2.88-0.972-246.67-85.958-335.216-257.016-343.086-273.104 74.15-57.824 167.336-92.32 268.436-92.32 60.58 0 118.318 12.39 170.828 34.756zM187.098 154.922c9.908 16.96 129.93 215.684 355.476 288.594 5.704 1.84 11.448 3.57 17.236 5.2-10.98 24.844-22.94 49.714-35.456 74.216-218.398-65.36-430.324-62.63-449.46-62.236-0.132-4.442-0.222-8.89-0.222-13.366 0-112.32 42.58-214.874 112.426-292.408zM83.912 536.904c19.558-0.26 199.736-1.042 404.302 53.282-72.46 128.812-150.612 237.11-162.142 252.92-122.348-57.708-213.802-170.496-242.16-306.202zM409.518 872.5c12.088-16.184 91.518-124.348 163.18-256.014 155.508 58.284 221.34 146.77 229.208 157.974-77.23 68.518-178.782 110.2-289.902 110.2-35.29 0-69.6-4.232-102.486-12.16zM850.522 723.888c-9.216-12.474-82.504-106.418-244.202-172.434 10.178-20.832 19.934-42.018 29.016-63.344 3.216-7.56 6.354-15.084 9.418-22.57 145.518 18.298 290.104-11.028 304.526-14.078-0.968 103.224-37.85 198.010-98.758 272.426z" />
<glyph unicode="&#xe90f;" glyph-name="github2" d="M0 403.59c0-46.398 4.34-88.38 13.022-125.934 8.678-37.554 20.696-70.184 36.052-97.892s34.884-52.078 58.586-73.108c23.7-21.032 49.406-38.224 77.112-51.576 27.706-13.35 59.336-24.198 94.888-32.546 35.552-8.346 71.856-14.188 108.91-17.528 37.054-3.338 77.78-5.006 122.178-5.006 44.732 0 85.628 1.668 122.68 5.006 37.054 3.34 73.442 9.184 109.16 17.528s67.512 19.192 95.388 32.546c27.876 13.354 53.746 30.544 77.616 51.576 23.87 21.030 43.566 45.404 59.086 73.108s27.622 60.336 36.302 97.892c8.68 37.556 13.020 79.536 13.020 125.934 0 82.788-27.708 154.394-83.118 214.816 3.004 8.012 5.758 17.108 8.262 27.29s4.84 24.702 7.010 43.564c2.17 18.862 1.336 40.642-2.504 65.346-3.838 24.704-10.932 49.906-21.284 75.612l-7.51 1.502c-5.342 1-14.106 0.75-26.29-0.752s-26.372-4.506-42.562-9.014c-16.19-4.506-37.054-13.186-62.592-26.038s-52.494-28.958-80.87-48.32c-48.736 13.352-115.668 20.030-200.792 20.030-84.792 0-151.556-6.678-200.294-20.030-28.376 19.362-55.5 35.468-81.37 48.32s-46.484 21.532-61.84 26.038c-15.354 4.508-29.71 7.428-43.062 8.764-13.354 1.336-21.784 1.752-25.288 1.252s-6.26-1.086-8.262-1.752c-10.348-25.706-17.442-50.906-21.28-75.612-3.838-24.704-4.674-46.486-2.504-65.346s4.508-33.382 7.010-43.564c2.504-10.182 5.258-19.278 8.262-27.29-55.414-60.422-83.122-132.026-83.122-214.816zM125.684 277.906c0 48.070 21.866 92.136 65.596 132.194 13.018 12.020 28.208 21.114 45.566 27.292 17.358 6.176 36.97 9.68 58.836 10.516 21.866 0.834 42.812 0.668 62.842-0.502 20.028-1.168 44.732-2.754 74.108-4.756 29.376-2.004 54.748-3.004 76.112-3.004 21.366 0 46.736 1 76.112 3.004 29.378 2.002 54.078 3.588 74.11 4.756 20.030 1.17 40.974 1.336 62.842 0.502 21.866-0.836 41.476-4.34 58.838-10.516 17.356-6.176 32.544-15.27 45.564-27.292 43.73-39.394 65.598-83.456 65.598-132.194 0-28.712-3.59-54.162-10.768-76.364-7.178-22.2-16.358-40.81-27.542-55.83s-26.704-27.79-46.568-38.306c-19.862-10.516-39.222-18.61-58.084-24.288-18.862-5.674-43.066-10.098-72.608-13.27-29.546-3.172-55.916-5.092-79.118-5.758-23.2-0.668-52.66-1.002-88.378-1.002s-65.178 0.334-88.378 1.002c-23.2 0.666-49.574 2.586-79.116 5.758s-53.744 7.596-72.606 13.27c-18.86 5.678-38.222 13.774-58.084 24.288s-35.386 23.282-46.568 38.306c-11.182 15.022-20.364 33.63-27.54 55.83-7.178 22.202-10.766 47.656-10.766 76.364zM640 288c0 53.019 28.654 96 64 96s64-42.981 64-96c0-53.019-28.654-96-64-96s-64 42.981-64 96zM256 288c0 53.019 28.654 96 64 96s64-42.981 64-96c0-53.019-28.654-96-64-96s-64 42.981-64 96z" />
<glyph unicode="&#xe910;" glyph-name="home" horiz-adv-x="1201" d="M586.858 960v0c81.567-67.796 146.185-152.188 224.927-222.102 1.412 62.146-1.059 124.292 1.059 186.086 57.556 1.766 115.465 0.353 173.021-3.178 2.825-116.877-1.059-233.754 0.706-350.279 46.257-77.683 139.829-116.524 180.083-199.857l33.898 3.884v-48.728c-46.963 0-93.926-1.059-140.535-2.472-3.178-129.236 3.178-258.472-4.237-387.354h-384.883c-1.412 81.92 2.119 164.193 1.766 246.113-48.375 2.119-96.397 2.119-144.772 0-1.766-81.92 1.059-164.193-2.119-246.113h-379.586c-6.356 128.883-0.353 258.119-3.531 387.001-47.316 1.766-94.985 2.825-142.654 2.825v52.966c18.008 12.712 53.672 38.135 71.68 50.847 168.43 179.023 361.578 344.982 515.178 530.361z" />
<glyph unicode="&#xe911;" glyph-name="message" horiz-adv-x="1090" d="M39.308 626.044c108.676 297.951 505.724 391.763 771.964 255.67 194.89-83.902 324.707-329.001 218.013-528.186-100.748-206.121-344.196-278.462-558.245-271.525-119.577-81.259-253.688-139.066-402.003-126.844 70.689 56.155 141.378 117.925 155.582 212.397-143.36 100.088-250.715 281.765-185.311 458.488z" />
<glyph unicode="&#xe912;" glyph-name="phone" horiz-adv-x="1056" d="M203.2 960h43.52c66.24-66.24 161.28-125.12 174.4-225.28 15.040-94.4-93.12-123.84-146.88-177.6 57.28-144.64 176.64-259.84 306.24-340.8 134.4-72.32 139.52 207.040 271.68 121.92 77.12-47.68 166.080-115.52 179.52-210.24-42.24-83.52-126.72-131.84-194.56-192h-51.52c-113.92 31.68-224 77.44-324.16 140.16-239.68 138.24-391.68 398.080-446.080 664.32 52.8 81.28 120.96 150.080 187.84 219.52z" />
<glyph unicode="&#xe913;" glyph-name="photography" horiz-adv-x="1248" d="M428.8 960h387.52c35.84-48 62.080-102.080 94.4-152.32 112.96 3.52 226.88 0 337.28-26.56v-772.16c-46.4-34.24-102.080-46.72-159.040-43.84-277.44-0.64-554.88 3.52-832.32-0.96-86.4-3.2-172.48 8.32-256.64 27.2v769.28c96.64 75.2 226.24 38.4 339.52 47.040 29.12 51.2 56.32 103.36 89.28 152.32zM559.36 718.4c-115.2-20.48-218.24-104.32-258.24-215.040-75.84-183.36 49.92-408.64 242.56-447.040 192.96-52.8 409.92 95.36 424.64 296 29.76 220.16-195.2 415.36-408.96 366.080zM1024.32 641.92c-0.32-16.32-0.32-49.6-0.32-66.24 53.12 0.32 106.56 0.32 160 0.32 0 16 0 47.36 0 63.36-53.12 0.96-106.56 1.6-159.68 2.56zM555.84 624.64c176.96 58.88 371.52-124.48 312.64-304.96-44.48-183.36-305.92-244.16-428.8-102.4-131.2 125.12-58.24 367.68 116.16 407.36z" />
<glyph unicode="&#xe914;" glyph-name="preparing" d="M136.145 960h773.585c22.109-190.604 45.382-380.975 66.793-571.578-18.851-2.095-56.32-6.051-74.938-8.145-20.48 169.891-40.029 339.782-60.509 509.673-212.247 0.465-424.495 0.465-636.742 0-20.247-169.891-39.564-339.782-60.276-509.44-18.618 1.862-56.087 5.818-74.705 7.913 20.945 190.604 44.451 380.975 66.793 571.578zM279.273 845.033c162.909 0.233 325.585 0.233 488.262 0 0.233-17.687 0.465-53.295 0.698-71.215-162.909 1.164-325.818-2.56-488.96-1.396 0 18.153 0 54.458 0 72.611zM279.273 704c163.375 0 326.516 0 489.891-0.233-0.465-17.222-1.164-52.131-1.629-69.585-162.676 0-325.585-0.233-488.262 0 0 17.455 0 52.364 0 69.818zM279.273 564.364c162.909 0 325.818 0 488.727 0 0-17.455 0-52.364 0-69.818-162.909 0.931-325.818-1.629-488.495-1.396-0.233 17.687-0.233 53.295-0.233 71.215zM277.876 447.767c163.142 0.465 326.516 0.233 489.658 0.233 0.465-17.92 1.164-53.527 1.396-71.215-163.142 0.465-326.051 2.095-489.193 1.396-0.465 17.455-1.396 52.364-1.862 69.585zM17.92 305.571c335.36 4.887 670.72 4.655 1006.080-0.465v-26.531c-41.425-114.269-72.611-232.727-125.44-342.575h-746.124c-65.862 113.804-95.185 244.829-134.516 369.571zM396.335 261.818c-0.698-17.455-1.629-52.364-2.095-69.585 85.876-0.233 171.52-0.233 257.396-0.233 0 17.455 0 52.364 0 69.818-85.178 0-170.356 0-255.302 0z" />
<glyph unicode="&#xe915;" glyph-name="support" d="M26.996 497.028c20.48 271.205 292.926 487.486 561.959 443.733 226.832-24.824 406.807-221.246 435.045-444.354v-89.367c-20.79-261.275-262.827-480.349-526.895-459.869-276.17 7.137-506.415 275.859-470.109 549.857zM354.676 856.359c23.583-56.785 46.235-114.192 68.887-171.598 66.095 8.999 133.12 6.516 199.525 0.31 22.342 57.406 45.615 114.192 69.818 170.977-111.399 31.961-226.832 32.272-338.23 0.31zM439.699 613.392c-123.811-55.234-139.016-246.070-25.135-319.612 112.95-89.678 298.822 3.103 295.719 146.773 9.93 135.292-151.428 239.244-270.584 172.839zM114.502 276.713c56.475 23.583 113.261 46.856 170.046 70.128-5.585 66.095-5.275 132.189-0.31 198.284-56.785 23.273-113.261 46.545-169.736 70.128-33.202-111.399-33.823-227.452 0-338.541zM763.656 546.056c4.344-66.715 4.034-133.43-0.31-200.145 56.475-22.962 112.95-45.925 169.425-68.577 33.513 110.468 33.202 226.521-0.621 336.989-56.165-22.342-112.64-44.684-168.495-68.267zM423.564 207.825c-22.342-57.716-45.304-115.433-68.887-172.528 111.709-31.651 227.142-31.651 338.541 1.241-24.204 56.785-47.787 113.571-70.749 170.667-66.095-6.827-132.81-8.378-198.904 0.621z" />
<glyph unicode="&#xe916;" glyph-name="testing" horiz-adv-x="975" d="M455.924 960h56.32c90.697-20.48 150.918-128.975 90.453-209.676-57.051-93.379-215.528-65.829-238.446 41.204-24.625 74.118 32.67 134.339 91.672 168.472zM716.069 827.611c89.234 50.712 209.189-34.133 192.122-135.070-7.558-99.962-139.459-153.844-214.796-88.503-76.312 55.101-62.415 184.808 22.674 223.573zM180.907 804.206c66.316 23.406 140.434-39.741 128.244-108.739-6.583-78.507-115.078-117.272-168.96-58.514-54.613 48.762-29.989 149.211 40.716 167.253zM56.076 491.642c56.076 34.865 132.632-27.794 108.008-89.478-14.141-49.981-83.383-68.754-120.686-32.183-40.716 31.208-29.745 97.28 12.678 121.661zM864.061 485.059c50.712 29.989 118.735-32.183 90.21-85.090-14.141-47.543-83.383-53.394-112.64-17.067-28.526 30.72-15.116 85.577 22.43 102.156zM177.006 200.046c44.861 32.183 112.396-17.554 99.23-69.73-8.046-51.931-80.945-74.118-115.078-32.914-29.745 28.77-20.48 83.87 15.848 102.644zM738.987 197.12c32.427 30.232 99.23 2.682 101.425-41.691 16.091-45.836-40.716-94.598-84.358-75.581-52.419 11.459-64.122 91.429-17.067 117.272zM447.147 74.484c58.514 60.952 155.794-38.766 93.867-94.842-57.783-65.829-162.133 36.084-93.867 94.842z" />
<glyph unicode="&#xe917;" glyph-name="web" horiz-adv-x="1138" d="M173.227 960h939.804c-58.596-280.747-108.658-563.2-173.227-842.809-164.409-48.924-325.12-110.364-489.529-158.72-151.893 42.667-297.813 106.667-443.733 166.684 13.369 68.836 25.031 137.956 34.987 207.36 62.862 1.138 125.724 1.991 188.302 1.707-2.276-20.764-7.396-62.862-9.671-83.627 87.040-33.564 174.364-67.129 261.689-99.84 101.547 33.564 203.378 66.276 303.787 102.116 16.498 74.524 33.28 149.049 48.924 223.858-253.156 3.982-506.596 0.284-759.751 1.707 11.947 56.32 23.609 112.356 36.124 168.391 247.751 2.844 496.071-3.982 744.107 2.844 31.858 34.418 24.178 95.004 38.684 139.378-250.596 0.853-501.476-0.284-752.071 0.569 9.956 56.889 18.773 114.062 31.573 170.382z" />
<glyph unicode="&#xe918;" glyph-name="working" horiz-adv-x="1097" d="M470.065 960h334.75c-110.933-109.227-218.697-221.135-327.924-332.069 62.415-61.928 124.343-124.587 186.514-187.002 22.187 12.19 44.861 23.406 68.023 33.646 39.010-14.872 66.072-49.006 95.817-77.044 88.503-92.648 183.345-179.444 269.897-274.286v-30.964c-47.543-55.832-99.23-108.008-154.575-156.282h-29.501c-116.053 106.789-226.743 219.672-335.97 333.288-37.547 30.964 2.438 68.998 15.604 100.937-62.415 62.171-124.83 124.099-186.758 186.514-72.411-71.192-144.091-143.116-215.528-215.284-57.051 54.857-113.371 110.446-168.716 166.766 68.754 70.461 138.728 139.215 207.97 209.189-4.632 32.914-9.021 65.829-12.922 98.743 33.402-3.413 66.804-6.827 100.206-10.728 51.444 51.2 100.693 104.35 153.112 154.575z" />
<glyph unicode="&#xe919;" glyph-name="google-plus" d="M559.066 896c0 0-200.956 0-267.94 0-120.12 0-233.17-91.006-233.17-196.422 0-107.726 81.882-194.666 204.088-194.666 8.498 0 16.756 0.17 24.842 0.752-7.93-15.186-13.602-32.288-13.602-50.042 0-29.938 16.104-54.21 36.468-74.024-15.386 0-30.242-0.448-46.452-0.448-148.782 0.002-263.3-94.758-263.3-193.020 0-96.778 125.542-157.314 274.334-157.314 169.624 0 263.306 96.244 263.306 193.028 0 77.6-22.896 124.072-93.686 174.134-24.216 17.144-70.53 58.836-70.53 83.344 0 28.72 8.196 42.868 51.428 76.646 44.312 34.624 75.672 83.302 75.672 139.916 0 67.406-30.020 133.098-86.372 154.772h84.954l59.96 43.344zM465.48 240.542c2.126-8.972 3.284-18.206 3.284-27.628 0-78.2-50.392-139.31-194.974-139.31-102.842 0-177.116 65.104-177.116 143.3 0 76.642 92.126 140.444 194.964 139.332 24-0.254 46.368-4.116 66.67-10.69 55.826-38.826 95.876-60.762 107.172-105.004zM300.818 532.224c-69.038 2.064-134.636 77.226-146.552 167.86-11.916 90.666 34.37 160.042 103.388 157.99 69.010-2.074 134.638-74.814 146.558-165.458 11.906-90.66-34.39-162.458-103.394-160.392zM832 704v192h-64v-192h-192v-64h192v-192h64v192h192v64z" />
<glyph unicode="&#xe91a;" glyph-name="cog" d="M933.79 349.75c-53.726 93.054-21.416 212.304 72.152 266.488l-100.626 174.292c-28.75-16.854-62.176-26.518-97.846-26.518-107.536 0-194.708 87.746-194.708 195.99h-201.258c0.266-33.41-8.074-67.282-25.958-98.252-53.724-93.056-173.156-124.702-266.862-70.758l-100.624-174.292c28.97-16.472 54.050-40.588 71.886-71.478 53.638-92.908 21.512-211.92-71.708-266.224l100.626-174.292c28.65 16.696 61.916 26.254 97.4 26.254 107.196 0 194.144-87.192 194.7-194.958h201.254c-0.086 33.074 8.272 66.57 25.966 97.218 53.636 92.906 172.776 124.594 266.414 71.012l100.626 174.29c-28.78 16.466-53.692 40.498-71.434 71.228zM512 240.668c-114.508 0-207.336 92.824-207.336 207.334 0 114.508 92.826 207.334 207.336 207.334 114.508 0 207.332-92.826 207.332-207.334-0.002-114.51-92.824-207.334-207.332-207.334z" />
<glyph unicode="&#xe91b;" glyph-name="skype" d="M975.31 382.062c2.812 20.8 4.43 41.946 4.43 63.472 0 258.31-210.542 467.744-470.206 467.744-25.808 0-51.11-2.12-75.732-6.16-44.144 28.768-96.684 45.534-153.224 45.534-155.046 0-280.578-125.616-280.578-280.612 0-56.396 16.598-108.788 45.18-152.778-3.85-24.034-5.818-48.646-5.818-73.718 0-258.352 210.434-467.764 470.17-467.764 29.314 0 57.854 2.854 85.592 7.866 43.1-26.738 93.868-42.296 148.292-42.296 155.004-0.002 280.584 125.646 280.584 280.626-0.006 58.586-17.92 113.056-48.69 158.086zM553.48 100.808c-149.41-7.784-219.328 25.274-283.378 85.382-71.53 67.134-42.796 143.708 15.48 147.602 58.244 3.888 93.214-66.026 124.3-85.472 31.048-19.376 149.188-63.52 211.588 7.816 67.952 77.656-45.188 117.84-128.118 130.004-118.406 17.532-267.9 81.584-256.27 207.814 11.632 126.148 107.164 190.828 207.7 199.952 128.154 11.634 211.582-19.414 277.57-75.72 76.3-65.058 35.016-137.788-13.598-143.64-48.424-5.818-102.808 107.008-209.582 108.704-110.054 1.728-184.434-114.522-48.572-147.568 135.932-33.010 281.5-46.572 333.922-170.834 52.458-124.274-81.508-256.25-231.042-264.040z" />
<glyph unicode="&#xe91c;" glyph-name="linkedin2" d="M384 576h177.106v-90.782h2.532c24.64 44.194 84.958 90.782 174.842 90.782 186.946 0 221.52-116.376 221.52-267.734v-308.266h-184.61v273.278c0 65.184-1.334 149.026-96.028 149.026-96.148 0-110.82-70.986-110.82-144.292v-278.012h-184.542v576zM64 576h192v-576h-192v576zM256 736c0-53.019-42.981-96-96-96s-96 42.981-96 96c0 53.019 42.981 96 96 96s96-42.981 96-96z" />
</font>
</defs>
</svg>
